<svg xmlns="http://www.w3.org/2000/svg" viewBox="0 0 320 144" width="320" height="144"><defs><linearGradient id="bg" x2="1" y2="1"><stop stop-color="#0c6258"/><stop offset="1" stop-color="#073734"/></linearGradient><linearGradient id="tile" x2=".8" y2="1"><stop stop-color="#f9d5b4"/><stop offset="1" stop-color="#e99c79"/></linearGradient><filter id="depth" x="-50%" y="-50%" width="200%" height="220%"><feDropShadow dx="0" dy="5" stdDeviation="5" flood-color="#002d29" flood-opacity=".4"/></filter></defs><rect width="320" height="144" rx="12" fill="url(#bg)"/><path d="M-30 125Q75 35 160 114T350 75M-30 140Q75 50 160 129T350 90" fill="none" stroke="#a8d3b3" stroke-opacity=".18"/><circle cx="290" cy="9" r="67" fill="#c7ddc5" opacity=".1"/><rect x="46" y="42" width="47" height="60" rx="9" fill="#b7d6b3" transform="rotate(-12 69 72)" opacity=".8"/><path d="M58 60h20m-20 12h16m-16 12h12" stroke="#073734" stroke-width="3" stroke-linecap="round" opacity=".5"/><rect x="231" y="40" width="44" height="61" rx="9" fill="#d8e8cb" transform="rotate(12 253 70)" opacity=".7"/><path d="m242 69 7 7 14-15" fill="none" stroke="#073734" stroke-width="3" stroke-linecap="round" stroke-linejoin="round"/><g filter="url(#depth)"><rect x="116" y="26" width="88" height="88" rx="20" fill="url(#tile)" stroke="#ffebd2" stroke-opacity=".7"/><g transform="translate(128 38)" fill="none" stroke="#073734" stroke-width="2.8" stroke-linecap="round" stroke-linejoin="round"><path d="M10 22c6-12 12 12 18 0s12 12 18 0m-36 12c6-8 12 8 18 0s12 8 18 0M10 47h42"/></g></g></svg>
